<?xml version="1.0" encoding="UTF-8"?>
<!DOCTYPE svg PUBLIC "-//W3C//DTD SVG 1.1//EN" "http://www.w3.org/Graphics/SVG/1.1/DTD/svg11.dtd">
<!-- Creator: CorelDRAW 2019 (64-Bit Evaluation Version) -->
<svg xmlns="http://www.w3.org/2000/svg" xml:space="preserve" width="630mm" height="235mm" version="1.1" style="shape-rendering:geometricPrecision; text-rendering:geometricPrecision; image-rendering:optimizeQuality; fill-rule:evenodd; clip-rule:evenodd"
viewBox="0 0 63000 23500"
 xmlns:xlink="http://www.w3.org/1999/xlink"
 xmlns:xodm="http://www.corel.com/coreldraw/odm/2003">
 <defs>
  <style type="text/css">
   <![CDATA[
    .str4 {stroke:#00AFEF;stroke-width:400;stroke-miterlimit:22.9256}
    .str5 {stroke:#00AFEF;stroke-width:400.01;stroke-miterlimit:22.9256}
    .str2 {stroke:#6D3CC1;stroke-width:400.01;stroke-miterlimit:22.9256}
    .str3 {stroke:#6D3CC1;stroke-width:500;stroke-miterlimit:22.9256}
    .str1 {stroke:#0098DA;stroke-width:17.64;stroke-miterlimit:2.61313}
    .str0 {stroke:#00AFEF;stroke-width:7.62;stroke-miterlimit:2.61313}
    .fil5 {fill:none}
    .fil1 {fill:none;fill-rule:nonzero}
    .fil3 {fill:#FEFEFE}
    .fil6 {fill:#00AFEF;fill-rule:nonzero}
    .fil2 {fill:#00AFEF;fill-rule:nonzero}
    .fil0 {fill:#6D3CC1;fill-rule:nonzero}
    .fil4 {fill:#6D3CC1;fill-rule:nonzero}
   ]]>
  </style>
 </defs>
 <g id="Layer_x0020_1">
  <metadata id="CorelCorpID_0Corel-Layer"/>
  <path class="fil0" d="M13831.5 22420.15l0 -774.7c0,-228.6 114.79,-342.9 344.36,-342.9l580.32 0 125.43 97.36 0 135.47 -697.24 0c-62.35,0 -93.54,31.05 -93.54,93.13l0 808.57c0,62.09 31.19,93.14 93.54,93.14l697.24 0 0 135.46 -125.43 97.37 -580.32 0c-229.57,0 -344.36,-114.3 -344.36,-342.9z"/>
  <path id="1" class="fil0" d="M15104.81 22665.68l0 -135.46 656.84 0c62.36,0 93.53,-31.05 93.53,-93.14l0 -160.86c0,-55.04 -24.09,-87.49 -72.28,-97.37l-431.51 -84.67c-164.39,-33.86 -246.58,-144.64 -246.58,-332.31l0 -116.42c0,-228.6 114.79,-342.9 344.36,-342.9l497.42 0 125.42 97.36 0 135.47 -614.34 0c-62.35,0 -93.53,31.05 -93.53,93.13l0 139.71c0,55.03 24.09,87.48 72.28,97.36l431.52 84.67c164.39,33.87 246.59,143.93 246.59,330.2l0 139.7c0,228.6 -114.8,342.9 -344.38,342.9l-539.93 0 -125.41 -97.37z"/>
  <polygon id="2" class="fil0" points="16412.12,22763.05 16412.12,21302.55 17398.45,21302.55 17398.45,21535.38 16671.46,21535.38 16671.46,21888.87 17334.68,21888.87 17334.68,22121.7 16671.46,22121.7 16671.46,22530.22 17398.45,22530.22 17398.45,22763.05 "/>
  <path id="3" class="fil0" d="M18195.6 22763.05l0 -1460.5 563.31 0c382.64,0 573.96,190.5 573.96,571.5l0 317.5c0,381 -191.32,571.5 -573.96,571.5l-563.31 0zm259.34 -232.83l318.86 0c199.82,0 299.72,-99.49 299.72,-298.45l0 -397.94c0,-198.97 -99.9,-298.45 -299.72,-298.45l-318.86 0 0 994.84z"/>
  <path id="4" class="fil0" d="M19613.46 22428.62l0 -442.39c0,-222.95 111.95,-334.43 335.86,-334.43l276.35 0c222.48,0 333.74,111.48 333.74,334.43l0 317.5 -697.24 0 0 146.05c0,64.91 32.59,97.37 97.77,97.37l556.94 0 0 133.35 -112.65 82.55 -454.91 0c-223.91,0 -335.86,-111.48 -335.86,-334.43zm248.71 -323.85l450.65 0 0 -139.7c0,-66.33 -33.31,-99.49 -99.91,-99.49l-252.97 0c-65.18,0 -97.77,33.16 -97.77,99.49l0 139.7z"/>
  <path id="5" class="fil0" d="M20861.25 23186.38l0 -1534.58 612.21 0c222.49,0 333.74,111.48 333.74,334.43l0 442.39c0,222.95 -111.25,334.43 -333.74,334.43l-363.5 0 0 423.33 -248.71 0zm248.71 -639.23l350.74 0c66.61,0 99.91,-32.46 99.91,-97.37l0 -484.71c0,-66.33 -33.3,-99.49 -99.91,-99.49l-350.74 0 0 681.57z"/>
  <path id="6" class="fil0" d="M22385.4 22763.05c-223.91,0 -335.87,-110.07 -335.87,-330.2 0,-220.13 111.96,-330.2 335.87,-330.2l329.48 0 0 -137.58c0,-66.33 -33.3,-99.49 -99.9,-99.49l-450.66 0 0 -131.23 110.54 -82.55 352.87 0c222.49,0 333.73,111.48 333.73,334.43l0 776.82 -576.06 0zm-87.16 -313.27c0,64.91 32.6,97.37 97.78,97.37l318.86 0 0 -245.53 -318.86 0c-65.18,0 -97.78,32.45 -97.78,97.36l0 50.8z"/>
  <path id="7" class="fil0" d="M23263.32 22763.05l0 -973.67c51.01,-91.72 148.8,-137.58 293.34,-137.58l223.2 0 110.54 82.55 0 131.23 -291.22 0c-41.09,0 -70.14,10.59 -87.16,31.75l0 865.72 -248.7 0z"/>
  <path id="8" class="fil0" d="M24096.59 22428.62l0 -1126.07 248.71 0 0 349.25 378.38 0 0 213.78 -378.38 0 0 584.2c0,64.91 32.6,97.37 97.79,97.37l301.85 0 0 133.35 -110.54 82.55 -201.94 0c-223.91,0 -335.87,-111.48 -335.87,-334.43z"/>
  <path id="9" class="fil0" d="M24980.9 22763.05l0 -1111.25 1271.18 0c222.48,0 333.74,111.48 333.74,334.43l0 776.82 -246.59 0 0 -797.98c0,-66.33 -33.3,-99.49 -99.91,-99.49l-331.61 0 0 897.47 -248.71 0 0 -897.47 -429.4 0 0 897.47 -248.7 0z"/>
  <path id="10" class="fil0" d="M26879.17 22428.62l0 -442.39c0,-222.95 111.94,-334.43 335.86,-334.43l276.34 0c222.49,0 333.74,111.48 333.74,334.43l0 317.5 -697.24 0 0 146.05c0,64.91 32.59,97.37 97.78,97.37l556.94 0 0 133.35 -112.66 82.55 -454.9 0c-223.92,0 -335.86,-111.48 -335.86,-334.43zm248.7 -323.85l450.65 0 0 -139.7c0,-66.33 -33.3,-99.49 -99.9,-99.49l-252.97 0c-65.19,0 -97.78,33.16 -97.78,99.49l0 139.7z"/>
  <path id="11" class="fil0" d="M28126.96 22763.05l0 -1111.25 612.2 0c222.5,0 333.74,111.48 333.74,334.43l0 776.82 -246.59 0 0 -797.98c0,-66.33 -33.3,-99.49 -99.9,-99.49l-350.74 0 0 897.47 -248.71 0z"/>
  <path id="12" class="fil0" d="M29374.75 22428.62l0 -1126.07 248.71 0 0 349.25 378.38 0 0 213.78 -378.38 0 0 584.2c0,64.91 32.6,97.37 97.78,97.37l301.86 0 0 133.35 -110.54 82.55 -201.94 0c-223.91,0 -335.87,-111.48 -335.87,-334.43z"/>
  <polygon id="13" class="fil0" points="30154.89,23025.52 30271.81,22485.77 30522.64,22485.77 30548.15,22523.87 30337.71,23072.08 "/>
  <polygon id="14" class="fil0" points="31366.56,22763.05 31366.56,21302.55 31649.27,21302.55 32301.87,22346.07 32301.87,21302.55 32559.08,21302.55 32559.08,22763.05 32278.49,22763.05 31625.89,21719.53 31625.89,22763.05 "/>
  <path id="15" class="fil0" d="M32894.95 21463.41l0 -249.76 257.21 0 0 249.76 -257.21 0zm4.25 1299.64l0 -1111.25 248.71 0 0 1111.25 -248.71 0z"/>
  <path id="16" class="fil0" d="M33456.13 22763.05l0 -973.67c51.02,-91.72 148.8,-137.58 293.35,-137.58l223.2 0 110.54 82.55 0 131.23 -291.22 0c-41.09,0 -70.15,10.59 -87.16,31.75l0 865.72 -248.71 0z"/>
  <path id="17" class="fil0" d="M34297.91 22763.05l0 -1111.25 1271.18 0c222.49,0 333.75,111.48 333.75,334.43l0 776.82 -246.59 0 0 -797.98c0,-66.33 -33.31,-99.49 -99.91,-99.49l-331.61 0 0 897.47 -248.71 0 0 -897.47 -429.4 0 0 897.47 -248.71 0z"/>
  <path id="18" class="fil0" d="M36489.53 22763.05c-223.91,0 -335.87,-110.07 -335.87,-330.2 0,-220.13 111.96,-330.2 335.87,-330.2l329.49 0 0 -137.58c0,-66.33 -33.31,-99.49 -99.91,-99.49l-450.66 0 0 -131.23 110.54 -82.55 352.87 0c222.49,0 333.73,111.48 333.73,334.43l0 776.82 -576.06 0zm-87.16 -313.27c0,64.91 32.6,97.37 97.79,97.37l318.86 0 0 -245.53 -318.86 0c-65.19,0 -97.79,32.45 -97.79,97.36l0 50.8z"/>
  <path id="19" class="fil0" d="M37894.63 22420.15l0 -1117.6 259.34 0 0 1134.53c0,62.09 31.18,93.14 93.53,93.14l431.52 0c62.36,0 93.53,-31.05 93.53,-93.14l0 -1134.53 259.34 0 0 1117.6c0,228.6 -114.78,342.9 -344.37,342.9l-448.52 0c-229.58,0 -344.37,-114.3 -344.37,-342.9z"/>
  <path id="20" class="fil0" d="M39359.25 22763.05l0 -1111.25 612.2 0c222.5,0 333.74,111.48 333.74,334.43l0 776.82 -246.59 0 0 -797.98c0,-66.33 -33.3,-99.49 -99.9,-99.49l-350.74 0 0 897.47 -248.71 0z"/>
  <path id="21" class="fil0" d="M40611.3 21463.41l0 -249.76 257.2 0 0 249.76 -257.2 0zm4.25 1299.64l0 -1111.25 248.7 0 0 1111.25 -248.7 0z"/>
  <polygon id="22" class="fil0" points="41061.95,21689.9 41087.45,21651.8 41300.02,21651.8 41582.74,22547.15 41612.5,22547.15 41895.22,21651.8 42109.93,21651.8 42135.43,21689.9 41784.68,22763.05 41412.69,22763.05 "/>
  <path id="23" class="fil0" d="M42318.24 22428.62l0 -442.39c0,-222.95 111.95,-334.43 335.86,-334.43l276.35 0c222.49,0 333.74,111.48 333.74,334.43l0 317.5 -697.24 0 0 146.05c0,64.91 32.59,97.37 97.78,97.37l556.94 0 0 133.35 -112.66 82.55 -454.91 0c-223.91,0 -335.86,-111.48 -335.86,-334.43zm248.71 -323.85l450.65 0 0 -139.7c0,-66.33 -33.3,-99.49 -99.91,-99.49l-252.96 0c-65.19,0 -97.78,33.16 -97.78,99.49l0 139.7z"/>
  <path id="24" class="fil0" d="M43557.53 22763.05l0 -973.67c51.01,-91.72 148.8,-137.58 293.35,-137.58l223.2 0 110.54 82.55 0 131.23 -291.22 0c-41.1,0 -70.15,10.59 -87.16,31.75l0 865.72 -248.71 0z"/>
  <path id="25" class="fil0" d="M44358.92 22680.5l0 -133.35 488.92 0c68.02,0 102.03,-34.57 102.03,-103.72 0,-71.96 -29.76,-112.89 -89.28,-122.76l-238.08 -38.1c-175.73,-29.64 -263.59,-129.12 -263.59,-298.45 0,-221.55 111.96,-332.32 335.87,-332.32l337.99 0 110.53 82.55 0 131.23 -437.9 0c-66.6,0 -99.9,35.28 -99.9,105.84 0,66.32 29.05,104.42 87.15,114.3l240.2 40.21c174.31,28.22 261.46,129.82 261.46,304.8 0,221.55 -111.24,332.32 -333.73,332.32l-389 0 -112.67 -82.55z"/>
  <path id="26" class="fil0" d="M45468.55 21463.41l0 -249.76 257.21 0 0 249.76 -257.21 0zm4.25 1299.64l0 -1111.25 248.71 0 0 1111.25 -248.71 0z"/>
  <path id="27" class="fil0" d="M46029.73 22428.62l0 -1126.07 248.71 0 0 349.25 378.38 0 0 213.78 -378.38 0 0 584.2c0,64.91 32.6,97.37 97.79,97.37l301.85 0 0 133.35 -110.54 82.55 -201.94 0c-223.91,0 -335.87,-111.48 -335.87,-334.43z"/>
  <polygon id="28" class="fil0" points="46795,21689.9 46820.51,21651.8 47033.07,21651.8 47315.79,22547.15 47345.55,22547.15 47628.27,21651.8 47842.98,21651.8 47868.49,21689.9 47379.57,23186.38 47166.99,23186.38 47141.48,23148.28 47273.28,22763.05 47145.74,22763.05 "/>
  <path id="29" class="fil1 str0" d="M13831.5 22420.15l0 -774.7c0,-228.6 114.79,-342.9 344.36,-342.9l580.32 0 125.43 97.36 0 135.47 -697.24 0c-62.35,0 -93.54,31.05 -93.54,93.13l0 808.57c0,62.09 31.19,93.14 93.54,93.14l697.24 0 0 135.46 -125.43 97.37 -580.32 0c-229.57,0 -344.36,-114.3 -344.36,-342.9z"/>
  <path id="30" class="fil1 str0" d="M15104.81 22665.68l0 -135.46 656.84 0c62.36,0 93.53,-31.05 93.53,-93.14l0 -160.86c0,-55.04 -24.09,-87.49 -72.28,-97.37l-431.51 -84.67c-164.39,-33.86 -246.58,-144.64 -246.58,-332.31l0 -116.42c0,-228.6 114.79,-342.9 344.36,-342.9l497.42 0 125.42 97.36 0 135.47 -614.34 0c-62.35,0 -93.53,31.05 -93.53,93.13l0 139.71c0,55.03 24.09,87.48 72.28,97.36l431.52 84.67c164.39,33.87 246.59,143.93 246.59,330.2l0 139.7c0,228.6 -114.8,342.9 -344.38,342.9l-539.93 0 -125.41 -97.37z"/>
  <polygon id="31" class="fil1 str0" points="16412.12,22763.05 16412.12,21302.55 17398.45,21302.55 17398.45,21535.38 16671.46,21535.38 16671.46,21888.87 17334.68,21888.87 17334.68,22121.7 16671.46,22121.7 16671.46,22530.22 17398.45,22530.22 17398.45,22763.05 "/>
  <path id="32" class="fil1 str0" d="M18195.6 22763.05l0 -1460.5 563.31 0c382.64,0 573.96,190.5 573.96,571.5l0 317.5c0,381 -191.32,571.5 -573.96,571.5l-563.31 0zm259.34 -232.83l318.86 0c199.82,0 299.72,-99.49 299.72,-298.45l0 -397.94c0,-198.97 -99.9,-298.45 -299.72,-298.45l-318.86 0 0 994.84z"/>
  <path id="33" class="fil1 str0" d="M19613.46 22428.62l0 -442.39c0,-222.95 111.95,-334.43 335.86,-334.43l276.35 0c222.48,0 333.74,111.48 333.74,334.43l0 317.5 -697.24 0 0 146.05c0,64.91 32.59,97.37 97.77,97.37l556.94 0 0 133.35 -112.65 82.55 -454.91 0c-223.91,0 -335.86,-111.48 -335.86,-334.43zm248.71 -323.85l450.65 0 0 -139.7c0,-66.33 -33.31,-99.49 -99.91,-99.49l-252.97 0c-65.18,0 -97.77,33.16 -97.77,99.49l0 139.7z"/>
  <path id="34" class="fil1 str0" d="M20861.25 23186.38l0 -1534.58 612.21 0c222.49,0 333.74,111.48 333.74,334.43l0 442.39c0,222.95 -111.25,334.43 -333.74,334.43l-363.5 0 0 423.33 -248.71 0zm248.71 -639.23l350.74 0c66.61,0 99.91,-32.46 99.91,-97.37l0 -484.71c0,-66.33 -33.3,-99.49 -99.91,-99.49l-350.74 0 0 681.57z"/>
  <path id="35" class="fil1 str0" d="M22385.4 22763.05c-223.91,0 -335.87,-110.07 -335.87,-330.2 0,-220.13 111.96,-330.2 335.87,-330.2l329.48 0 0 -137.58c0,-66.33 -33.3,-99.49 -99.9,-99.49l-450.66 0 0 -131.23 110.54 -82.55 352.87 0c222.49,0 333.73,111.48 333.73,334.43l0 776.82 -576.06 0zm-87.16 -313.27c0,64.91 32.6,97.37 97.78,97.37l318.86 0 0 -245.53 -318.86 0c-65.18,0 -97.78,32.45 -97.78,97.36l0 50.8z"/>
  <path id="36" class="fil1 str0" d="M23263.32 22763.05l0 -973.67c51.01,-91.72 148.8,-137.58 293.34,-137.58l223.2 0 110.54 82.55 0 131.23 -291.22 0c-41.09,0 -70.14,10.59 -87.16,31.75l0 865.72 -248.7 0z"/>
  <path id="37" class="fil1 str0" d="M24096.59 22428.62l0 -1126.07 248.71 0 0 349.25 378.38 0 0 213.78 -378.38 0 0 584.2c0,64.91 32.6,97.37 97.79,97.37l301.85 0 0 133.35 -110.54 82.55 -201.94 0c-223.91,0 -335.87,-111.48 -335.87,-334.43z"/>
  <path id="38" class="fil1 str0" d="M24980.9 22763.05l0 -1111.25 1271.18 0c222.48,0 333.74,111.48 333.74,334.43l0 776.82 -246.59 0 0 -797.98c0,-66.33 -33.3,-99.49 -99.91,-99.49l-331.61 0 0 897.47 -248.71 0 0 -897.47 -429.4 0 0 897.47 -248.7 0z"/>
  <path id="39" class="fil1 str0" d="M26879.17 22428.62l0 -442.39c0,-222.95 111.94,-334.43 335.86,-334.43l276.34 0c222.49,0 333.74,111.48 333.74,334.43l0 317.5 -697.24 0 0 146.05c0,64.91 32.59,97.37 97.78,97.37l556.94 0 0 133.35 -112.66 82.55 -454.9 0c-223.92,0 -335.86,-111.48 -335.86,-334.43zm248.7 -323.85l450.65 0 0 -139.7c0,-66.33 -33.3,-99.49 -99.9,-99.49l-252.97 0c-65.19,0 -97.78,33.16 -97.78,99.49l0 139.7z"/>
  <path id="40" class="fil1 str0" d="M28126.96 22763.05l0 -1111.25 612.2 0c222.5,0 333.74,111.48 333.74,334.43l0 776.82 -246.59 0 0 -797.98c0,-66.33 -33.3,-99.49 -99.9,-99.49l-350.74 0 0 897.47 -248.71 0z"/>
  <path id="41" class="fil1 str0" d="M29374.75 22428.62l0 -1126.07 248.71 0 0 349.25 378.38 0 0 213.78 -378.38 0 0 584.2c0,64.91 32.6,97.37 97.78,97.37l301.86 0 0 133.35 -110.54 82.55 -201.94 0c-223.91,0 -335.87,-111.48 -335.87,-334.43z"/>
  <polygon id="42" class="fil1 str0" points="30154.89,23025.52 30271.81,22485.77 30522.64,22485.77 30548.15,22523.87 30337.71,23072.08 "/>
  <polygon id="43" class="fil1 str0" points="31366.56,22763.05 31366.56,21302.55 31649.27,21302.55 32301.87,22346.07 32301.87,21302.55 32559.08,21302.55 32559.08,22763.05 32278.49,22763.05 31625.89,21719.53 31625.89,22763.05 "/>
  <path id="44" class="fil1 str0" d="M32894.95 21463.41l0 -249.76 257.21 0 0 249.76 -257.21 0zm4.25 1299.64l0 -1111.25 248.71 0 0 1111.25 -248.71 0z"/>
  <path id="45" class="fil1 str0" d="M33456.13 22763.05l0 -973.67c51.02,-91.72 148.8,-137.58 293.35,-137.58l223.2 0 110.54 82.55 0 131.23 -291.22 0c-41.09,0 -70.15,10.59 -87.16,31.75l0 865.72 -248.71 0z"/>
  <path id="46" class="fil1 str0" d="M34297.91 22763.05l0 -1111.25 1271.18 0c222.49,0 333.75,111.48 333.75,334.43l0 776.82 -246.59 0 0 -797.98c0,-66.33 -33.31,-99.49 -99.91,-99.49l-331.61 0 0 897.47 -248.71 0 0 -897.47 -429.4 0 0 897.47 -248.71 0z"/>
  <path id="47" class="fil1 str0" d="M36489.53 22763.05c-223.91,0 -335.87,-110.07 -335.87,-330.2 0,-220.13 111.96,-330.2 335.87,-330.2l329.49 0 0 -137.58c0,-66.33 -33.31,-99.49 -99.91,-99.49l-450.66 0 0 -131.23 110.54 -82.55 352.87 0c222.49,0 333.73,111.48 333.73,334.43l0 776.82 -576.06 0zm-87.16 -313.27c0,64.91 32.6,97.37 97.79,97.37l318.86 0 0 -245.53 -318.86 0c-65.19,0 -97.79,32.45 -97.79,97.36l0 50.8z"/>
  <path id="48" class="fil1 str0" d="M37894.63 22420.15l0 -1117.6 259.34 0 0 1134.53c0,62.09 31.18,93.14 93.53,93.14l431.52 0c62.36,0 93.53,-31.05 93.53,-93.14l0 -1134.53 259.34 0 0 1117.6c0,228.6 -114.78,342.9 -344.37,342.9l-448.52 0c-229.58,0 -344.37,-114.3 -344.37,-342.9z"/>
  <path id="49" class="fil1 str0" d="M39359.25 22763.05l0 -1111.25 612.2 0c222.5,0 333.74,111.48 333.74,334.43l0 776.82 -246.59 0 0 -797.98c0,-66.33 -33.3,-99.49 -99.9,-99.49l-350.74 0 0 897.47 -248.71 0z"/>
  <path id="50" class="fil1 str0" d="M40611.3 21463.41l0 -249.76 257.2 0 0 249.76 -257.2 0zm4.25 1299.64l0 -1111.25 248.7 0 0 1111.25 -248.7 0z"/>
  <polygon id="51" class="fil1 str0" points="41061.95,21689.9 41087.45,21651.8 41300.02,21651.8 41582.74,22547.15 41612.5,22547.15 41895.22,21651.8 42109.93,21651.8 42135.43,21689.9 41784.68,22763.05 41412.69,22763.05 "/>
  <path id="52" class="fil1 str0" d="M42318.24 22428.62l0 -442.39c0,-222.95 111.95,-334.43 335.86,-334.43l276.35 0c222.49,0 333.74,111.48 333.74,334.43l0 317.5 -697.24 0 0 146.05c0,64.91 32.59,97.37 97.78,97.37l556.94 0 0 133.35 -112.66 82.55 -454.91 0c-223.91,0 -335.86,-111.48 -335.86,-334.43zm248.71 -323.85l450.65 0 0 -139.7c0,-66.33 -33.3,-99.49 -99.91,-99.49l-252.96 0c-65.19,0 -97.78,33.16 -97.78,99.49l0 139.7z"/>
  <path id="53" class="fil1 str0" d="M43557.53 22763.05l0 -973.67c51.01,-91.72 148.8,-137.58 293.35,-137.58l223.2 0 110.54 82.55 0 131.23 -291.22 0c-41.1,0 -70.15,10.59 -87.16,31.75l0 865.72 -248.71 0z"/>
  <path id="54" class="fil1 str0" d="M44358.92 22680.5l0 -133.35 488.92 0c68.02,0 102.03,-34.57 102.03,-103.72 0,-71.96 -29.76,-112.89 -89.28,-122.76l-238.08 -38.1c-175.73,-29.64 -263.59,-129.12 -263.59,-298.45 0,-221.55 111.96,-332.32 335.87,-332.32l337.99 0 110.53 82.55 0 131.23 -437.9 0c-66.6,0 -99.9,35.28 -99.9,105.84 0,66.32 29.05,104.42 87.15,114.3l240.2 40.21c174.31,28.22 261.46,129.82 261.46,304.8 0,221.55 -111.24,332.32 -333.73,332.32l-389 0 -112.67 -82.55z"/>
  <path id="55" class="fil1 str0" d="M45468.55 21463.41l0 -249.76 257.21 0 0 249.76 -257.21 0zm4.25 1299.64l0 -1111.25 248.71 0 0 1111.25 -248.71 0z"/>
  <path id="56" class="fil1 str0" d="M46029.73 22428.62l0 -1126.07 248.71 0 0 349.25 378.38 0 0 213.78 -378.38 0 0 584.2c0,64.91 32.6,97.37 97.79,97.37l301.85 0 0 133.35 -110.54 82.55 -201.94 0c-223.91,0 -335.87,-111.48 -335.87,-334.43z"/>
  <polygon id="57" class="fil1 str0" points="46795,21689.9 46820.51,21651.8 47033.07,21651.8 47315.79,22547.15 47345.55,22547.15 47628.27,21651.8 47842.98,21651.8 47868.49,21689.9 47379.57,23186.38 47166.99,23186.38 47141.48,23148.28 47273.28,22763.05 47145.74,22763.05 "/>
  <g id="_1939638453632">
   <g>
    <path class="fil2" d="M26771.85 14196.76l-2594.17 -1497.75 -94.4 -54.51 -0.01 -108.5 0 -7812.46 0.01 -108.5 94.4 -54.51 6765.78 -3906.23 94.42 -54.51 94.41 54.51 975.33 563.13 92.92 53.65 0.75 108.62 77.13 11198.21 2799.87 -1615.49 0.1 -4050.11c-30,-7.9 -59.42,-17.62 -88.1,-29.04 -89.44,-35.61 -170.12,-87.55 -238.19,-152l0.35 -0.37c-74.09,-70.23 -133.52,-154.15 -173.49,-246.99 -39.16,-90.95 -60.86,-190.89 -60.86,-295.54 0,-206.64 83.78,-393.74 219.22,-529.17 135.42,-135.43 322.53,-219.21 529.18,-219.21 206.64,0 393.74,83.78 529.17,219.21 135.42,135.44 219.2,322.53 219.2,529.17 0,206.65 -83.78,393.76 -219.2,529.18 -92.86,92.87 -210.02,161.44 -341.11,195.38l-0.09 4158.03 -0.01 108.53 -94.41 54.48 -3173.82 1831.25 -279.54 161.28 -2.22 -323.55 -78.61 -11413.15 -787.98 -454.96 -6576.95 3797.2 0 7595.46 2499.79 1443.26c47.15,-47.67 100.78,-89.15 159.52,-123.05 110.63,-63.85 238.06,-100.4 372.96,-100.4 102.26,0 200.79,21.28 291.38,59.71l0.74 0c92.97,39.45 176.48,97.41 245.96,169.3 66.02,68.31 119.26,149.55 155.72,239.75 35.2,87.06 54.59,181.49 54.59,279.61 0,206.64 -83.78,393.74 -219.21,529.19 -135.43,135.43 -322.54,219.21 -529.18,219.21 -206.65,0 -393.76,-83.78 -529.19,-219.2 -135.42,-135.45 -219.2,-322.55 -219.2,-529.2 0,-66.3 8.91,-131.27 25.62,-193.69l1.42 -5.23zm8756.8 -8270.54c-67.08,-67.08 -159.77,-108.57 -262.15,-108.57 -102.39,0 -195.09,41.49 -262.16,108.57 -67.08,67.07 -108.58,159.77 -108.58,262.15 0,52.37 10.65,101.9 29.87,146.55 20.62,47.9 49.85,89.82 85.38,123.44l0.74 0c34.06,32.25 73.78,57.98 117.21,75.27 41.27,16.43 87.63,25.48 137.52,25.48l0.02 0c102.38,0 195.07,-41.5 262.15,-108.58 67.07,-67.07 108.57,-159.77 108.57,-262.16 0,-102.38 -41.5,-195.07 -108.57,-262.15zm-7890.74 8127.21c-43.43,-18.32 -92.27,-28.46 -144.71,-28.46 -68.54,0 -131.88,17.76 -185.62,48.76 -56.03,32.34 -103.06,79.56 -136.05,136.56 -15.72,27.18 -28.17,57.06 -36.72,89.06 -8.05,30.06 -12.35,62.35 -12.35,96.33 0,102.4 41.5,195.1 108.57,262.18 67.08,67.07 159.78,108.57 262.17,108.57 102.39,0 195.09,-41.51 262.16,-108.58 67.07,-67.08 108.57,-159.78 108.57,-262.17 0,-50.05 -9.44,-97.1 -26.57,-139.47 -17.88,-44.24 -44.39,-84.5 -77.52,-118.78 -34.19,-35.37 -75.63,-64.04 -122.05,-83.74l0.12 -0.26z"/>
    <path class="fil0" d="M35359.7 3007.99l2576.14 1487.35 132.18 76.32 0 151.9 0 7812.44 0 151.9 -132.18 76.32 -6765.77 3906.23 -131.66 76.01 -131.66 -76.01 -1000.97 -577.89 -133.21 -76.92 0 -151.3 0 -11049.84 -2684.88 1550.11 0 3931.5c20.12,7.2 39.86,15.16 59.16,23.84l-0.18 0.38c101.05,45.57 190.92,110.33 264.76,189.4 69.82,74.76 125.97,162.88 164.37,260.29 37.01,93.95 57.36,195.57 57.36,301.14 0,227.49 -92.23,433.47 -241.34,582.58 -149.1,149.11 -355.08,241.33 -582.58,241.33 -227.48,0 -433.44,-92.23 -582.55,-241.34 -149.1,-149.11 -241.32,-355.09 -241.32,-582.57 0,-227.48 92.22,-433.46 241.33,-582.58 91.9,-91.91 205.42,-162.2 332.27,-202.6l0 -4073.27 0 -151.9 132.18 -76.32 3213.6 -1855.37 396.54 -228.94 0 457.15 0 11355.7 736.08 424.97 6501.93 -3753.9 0 -7508.64 -2444.08 -1411.1c-40.81,35.74 -85.26,67.64 -132.75,95.04 -122.02,70.42 -262.29,110.73 -410.46,110.73 -104.69,0 -205.79,-20.12 -299.55,-56.76 -96.37,-37.64 -183.83,-92.87 -258.43,-161.67 -82.86,-76.51 -150.18,-170.3 -196.43,-275.89 -44.69,-102 -69.51,-213.55 -69.51,-329.61 0,-227.47 92.24,-433.46 241.35,-582.56 149.11,-149.11 355.08,-241.34 582.57,-241.34 227.5,0 433.47,92.22 582.57,241.33 149.11,149.11 241.33,355.1 241.33,582.57 0,54.84 -5.58,108.97 -16.21,161.79zm-598.94 -370.54c-53.39,-53.39 -127.2,-86.43 -208.75,-86.43 -81.54,0 -155.35,33.04 -208.75,86.44 -53.41,53.4 -86.45,127.22 -86.45,208.74 0,43.46 8.6,83.64 24.07,118.95 16.25,37.12 40.41,70.54 70.44,98.27 27.02,24.92 58.57,44.88 93.21,58.41 32.35,12.63 68.56,19.58 107.48,19.58 55.27,0 105.81,-13.99 148.17,-38.44 44.36,-25.61 81.81,-63.34 108.29,-109.12 12.32,-21.29 22.17,-45.04 29.04,-70.75 6.31,-23.6 9.68,-49.36 9.68,-76.9 0,-81.54 -33.04,-155.36 -86.43,-208.75zm-7948.59 8137.5l-2.93 -0.01 0 1.02c-81.52,0 -155.32,33.04 -208.72,86.44 -53.4,53.4 -86.43,127.21 -86.43,208.76 0,81.54 33.03,155.36 86.42,208.75 53.4,53.4 127.21,86.44 208.73,86.44 81.55,0 155.37,-33.04 208.76,-86.43 53.4,-53.4 86.43,-127.22 86.43,-208.76 0,-39.25 -7.16,-76.01 -20.18,-109.06 -13.57,-34.43 -33.74,-65.94 -59.03,-93.01 -26.91,-28.82 -58.91,-52.07 -94.2,-67.93l-1.03 0c-35.28,-15.87 -73.47,-25.1 -112.85,-26.07l0 -0.03 -4.97 -0.09 0 -0.02z"/>
   </g>
   <g>
    <polygon class="fil3 str1" points="27875.79,7495.46 28854.68,6930.31 28854.68,7628.32 27875.79,8193.48 "/>
    <polygon class="fil3 str1" points="27875.79,8553.06 28854.68,7987.91 28854.68,8685.93 27875.79,9251.09 "/>
    <polygon class="fil3 str1" points="27875.79,9655.83 28854.68,9090.68 28854.68,9788.69 27875.79,10353.85 "/>
   </g>
   <g>
    <polygon class="fil3 str1" points="33312.64,8007.48 34291.52,7442.32 34291.52,8140.34 33312.64,8705.5 "/>
    <polygon class="fil3 str1" points="33312.64,9065.08 34291.52,8499.93 34291.52,9197.94 33312.64,9763.1 "/>
    <polygon class="fil3 str1" points="33312.64,10167.85 34291.52,9602.7 34291.52,10300.71 33312.64,10865.87 "/>
   </g>
  </g>
  <path class="fil4" d="M14962.8 19585.81l0 -1752.6 753.16 0c251.83,0 377.74,137.16 377.74,411.48l0 162.56c0,57.57 -15.54,106.68 -46.63,147.32l-81.61 106.68 97.93 88.9c51.3,45.72 76.95,113.45 76.95,203.2l0 220.98c0,274.32 -125.92,411.48 -377.75,411.48l-799.79 0zm284.47 -279.4l506 0c68.4,0 102.59,-37.25 102.59,-111.76l0 -266.7c0,-74.51 -34.19,-111.76 -102.59,-111.76l-506 0 0 490.22zm0 -769.62l459.36 0c68.4,0 102.6,-37.25 102.6,-111.76l0 -200.66c0,-74.51 -34.2,-111.76 -102.6,-111.76l-459.36 0 0 424.18z"/>
  <polygon id="1" class="fil4" points="16322.22,18298.03 16350.2,18252.31 16583.37,18252.31 16893.5,19326.73 16926.14,19326.73 17236.27,18252.31 17471.78,18252.31 17499.76,18298.03 16963.45,20093.81 16730.28,20093.81 16702.29,20048.09 16846.86,19585.81 16706.96,19585.81 "/>
  <path id="2" class="fil4" d="M18278.57 19174.33l0 -929.64c0,-274.32 125.91,-411.48 377.74,-411.48l636.57 0 137.58 116.84 0 162.56 -764.82 0c-68.4,0 -102.6,37.25 -102.6,111.76l0 970.28c0,74.51 34.2,111.76 102.6,111.76l764.82 0 0 162.56 -137.58 116.84 -636.57 0c-251.83,0 -377.74,-137.16 -377.74,-411.48z"/>
  <path id="3" class="fil4" d="M19703.27 19184.49l0 -530.86c0,-267.55 122.81,-401.32 368.42,-401.32l326.45 0c244.05,0 366.08,133.77 366.08,401.32l0 530.86c0,267.55 -122.03,401.32 -366.08,401.32l-326.45 0c-245.61,0 -368.42,-133.77 -368.42,-401.32zm272.82 25.4c0,77.89 35.76,116.84 107.26,116.84l300.8 0c73.06,0 109.59,-38.95 109.59,-116.84l0 -581.66c0,-79.59 -36.53,-119.38 -109.59,-119.38l-300.8 0c-71.5,0 -107.26,39.79 -107.26,119.38l0 581.66z"/>
  <path id="4" class="fil4" d="M21095.34 19585.81l0 -1333.5 1394.39 0c244.05,0 366.09,133.77 366.09,401.32l0 932.18 -270.49 0 0 -957.58c0,-79.59 -36.53,-119.38 -109.59,-119.38l-363.76 0 0 1076.96 -272.81 0 0 -1076.96 -471.02 0 0 1076.96 -272.81 0z"/>
  <path id="5" class="fil4" d="M23196.25 20093.81l0 -1841.5 671.55 0c244.06,0 366.09,133.77 366.09,401.32l0 530.86c0,267.55 -122.03,401.32 -366.09,401.32l-398.73 0 0 508 -272.82 0zm272.82 -767.08l384.74 0c73.07,0 109.59,-38.95 109.59,-116.84l0 -581.66c0,-79.59 -36.52,-119.38 -109.59,-119.38l-384.74 0 0 817.88z"/>
  <path id="6" class="fil4" d="M24555.67 19184.49l0 -932.18 272.82 0 0 957.58c0,77.89 35.75,116.84 107.26,116.84l387.07 0 0 -1074.42 270.48 0 0 1333.5 -669.21 0c-245.62,0 -368.42,-133.77 -368.42,-401.32z"/>
  <path id="7" class="fil4" d="M25933.74 19184.49l0 -1351.28 272.82 0 0 419.1 415.05 0 0 256.54 -415.05 0 0 701.04c0,77.89 35.76,116.84 107.26,116.84l331.11 0 0 160.02 -121.25 99.06 -221.52 0c-245.61,0 -368.42,-133.77 -368.42,-401.32z"/>
  <path id="8" class="fil4" d="M26885.1 19184.49l0 -530.86c0,-267.55 122.8,-401.32 368.42,-401.32l303.13 0c244.05,0 366.09,133.77 366.09,401.32l0 381 -764.82 0 0 175.26c0,77.89 35.75,116.84 107.26,116.84l610.92 0 0 160.02 -123.58 99.06 -499 0c-245.62,0 -368.42,-133.77 -368.42,-401.32zm272.82 -388.62l494.33 0 0 -167.64c0,-79.59 -36.53,-119.38 -109.59,-119.38l-277.48 0c-71.51,0 -107.26,39.79 -107.26,119.38l0 167.64z"/>
  <path id="9" class="fil4" d="M28244.52 19585.81l0 -1168.4c55.96,-110.07 163.22,-165.1 321.78,-165.1l244.84 0 121.25 99.06 0 157.48 -319.45 0c-45.09,0 -76.95,12.7 -95.6,38.1l0 1038.86 -272.82 0z"/>
  <path id="10" class="fil4" d="M29680.88 19468.97l0 -162.56 720.52 0c68.4,0 102.6,-37.25 102.6,-111.76l0 -193.04c0,-66.04 -26.43,-104.99 -79.28,-116.84l-473.35 -101.6c-180.33,-40.64 -270.49,-173.57 -270.49,-398.78l0 -139.7c0,-274.32 125.92,-411.48 377.75,-411.48l545.63 0 137.58 116.84 0 162.56 -673.88 0c-68.4,0 -102.6,37.25 -102.6,111.76l0 167.64c0,66.04 26.43,104.99 79.28,116.84l473.35 101.6c180.32,40.64 270.48,172.72 270.48,396.24l0 167.64c0,274.32 -125.91,411.48 -377.74,411.48l-592.27 0 -137.58 -116.84z"/>
  <path id="11" class="fil4" d="M31072.95 19184.49l0 -530.86c0,-267.55 122.8,-401.32 368.42,-401.32l326.44 0c244.06,0 366.09,133.77 366.09,401.32l0 530.86c0,267.55 -122.03,401.32 -366.09,401.32l-326.44 0c-245.62,0 -368.42,-133.77 -368.42,-401.32zm272.81 25.4c0,77.89 35.76,116.84 107.26,116.84l300.8 0c73.07,0 109.59,-38.95 109.59,-116.84l0 -581.66c0,-79.59 -36.52,-119.38 -109.59,-119.38l-300.8 0c-71.5,0 -107.26,39.79 -107.26,119.38l0 581.66z"/>
  <path id="12" class="fil4" d="M32446.35 19184.49l0 -530.86c0,-267.55 122.81,-401.32 368.42,-401.32l440.71 0 123.58 99.06 0 157.48 -552.63 0c-71.5,0 -107.26,39.79 -107.26,119.38l0 581.66c0,77.89 35.76,116.84 107.26,116.84l552.63 0 0 160.02 -123.58 99.06 -440.71 0c-245.61,0 -368.42,-133.77 -368.42,-401.32z"/>
  <path id="13" class="fil4" d="M33656.54 18026.25l0 -299.72 282.14 0 0 299.72 -282.14 0zm4.66 1559.56l0 -1333.5 272.82 0 0 1333.5 -272.82 0z"/>
  <path id="14" class="fil4" d="M34262.8 19184.49l0 -530.86c0,-267.55 122.8,-401.32 368.42,-401.32l303.13 0c244.05,0 366.08,133.77 366.08,401.32l0 381 -764.82 0 0 175.26c0,77.89 35.76,116.84 107.27,116.84l610.92 0 0 160.02 -123.59 99.06 -498.99 0c-245.62,0 -368.42,-133.77 -368.42,-401.32zm272.81 -388.62l494.34 0 0 -167.64c0,-79.59 -36.53,-119.38 -109.6,-119.38l-277.47 0c-71.51,0 -107.27,39.79 -107.27,119.38l0 167.64z"/>
  <path id="15" class="fil4" d="M35622.22 19184.49l0 -1351.28 272.81 0 0 419.1 415.06 0 0 256.54 -415.06 0 0 701.04c0,77.89 35.76,116.84 107.26,116.84l331.11 0 0 160.02 -121.25 99.06 -221.52 0c-245.61,0 -368.41,-133.77 -368.41,-401.32z"/>
  <polygon id="16" class="fil4" points="36461.65,18298.03 36489.63,18252.31 36722.81,18252.31 37032.93,19326.73 37065.58,19326.73 37375.7,18252.31 37611.21,18252.31 37639.19,18298.03 37102.88,20093.81 36869.71,20093.81 36841.73,20048.09 36986.3,19585.81 36846.39,19585.81 "/>
  <path id="17" class="fil4" d="M38418 19174.33l0 -929.64c0,-274.32 125.91,-411.48 377.74,-411.48l538.64 0c251.83,0 377.75,137.16 377.75,411.48l0 929.64c0,274.32 -125.92,411.48 -377.75,411.48l-538.64 0c-251.83,0 -377.74,-137.16 -377.74,-411.48zm284.47 20.32c0,74.51 34.2,111.76 102.6,111.76l519.98 0c68.41,0 102.6,-37.25 102.6,-111.76l0 -970.28c0,-74.51 -34.19,-111.76 -102.6,-111.76l-519.98 0c-68.4,0 -102.6,37.25 -102.6,111.76l0 970.28z"/>
  <path id="18" class="fil4" d="M40061.89 19585.81l0 -1478.28c0,-267.55 122.8,-401.32 368.42,-401.32l221.52 0 121.25 99.06 0 160.02 -331.11 0c-71.51,0 -107.26,38.95 -107.26,116.84l0 170.18 415.05 0 0 256.54 -415.05 0 0 1076.96 -272.82 0z"/>
  <polygon id="19" class="fil4" points="41577.54,19585.81 41577.54,17833.21 41862.01,17833.21 41862.01,19585.81 "/>
  <path id="20" class="fil4" d="M42235.09 19585.81l0 -1333.5 671.55 0c244.06,0 366.09,133.77 366.09,401.32l0 932.18 -270.49 0 0 -957.58c0,-79.59 -36.52,-119.38 -109.59,-119.38l-384.74 0 0 1076.96 -272.82 0z"/>
  <path id="21" class="fil4" d="M43594.51 19184.49l0 -530.86c0,-267.55 122.8,-401.32 368.42,-401.32l398.73 0 0 -546.1 270.49 0 0 1879.6 -669.22 0c-245.62,0 -368.42,-133.77 -368.42,-401.32zm272.82 25.4c0,77.89 35.75,116.84 107.26,116.84l387.07 0 0 -817.88 -387.07 0c-71.51,0 -107.26,39.79 -107.26,119.38l0 581.66z"/>
  <path id="22" class="fil4" d="M44977.25 18026.25l0 -299.72 282.14 0 0 299.72 -282.14 0zm4.66 1559.56l0 -1333.5 272.82 0 0 1333.5 -272.82 0z"/>
  <path id="23" class="fil4" d="M45905.29 19585.81c-245.62,0 -368.42,-132.08 -368.42,-396.24 0,-264.16 122.8,-396.24 368.42,-396.24l361.42 0 0 -165.1c0,-79.59 -36.53,-119.38 -109.59,-119.38l-494.34 0 0 -157.48 121.26 -99.06 387.07 0c244.05,0 366.09,133.77 366.09,401.32l0 932.18 -631.91 0zm-95.6 -375.92c0,77.89 35.75,116.84 107.26,116.84l349.76 0 0 -294.64 -349.76 0c-71.51,0 -107.26,38.95 -107.26,116.84l0 60.96z"/>
  <path id="24" class="fil1 str0" d="M14962.8 19585.81l0 -1752.6 753.16 0c251.83,0 377.74,137.16 377.74,411.48l0 162.56c0,57.57 -15.54,106.68 -46.63,147.32l-81.61 106.68 97.93 88.9c51.3,45.72 76.95,113.45 76.95,203.2l0 220.98c0,274.32 -125.92,411.48 -377.75,411.48l-799.79 0zm284.47 -279.4l506 0c68.4,0 102.59,-37.25 102.59,-111.76l0 -266.7c0,-74.51 -34.19,-111.76 -102.59,-111.76l-506 0 0 490.22zm0 -769.62l459.36 0c68.4,0 102.6,-37.25 102.6,-111.76l0 -200.66c0,-74.51 -34.2,-111.76 -102.6,-111.76l-459.36 0 0 424.18z"/>
  <polygon id="25" class="fil1 str0" points="16322.22,18298.03 16350.2,18252.31 16583.37,18252.31 16893.5,19326.73 16926.14,19326.73 17236.27,18252.31 17471.78,18252.31 17499.76,18298.03 16963.45,20093.81 16730.28,20093.81 16702.29,20048.09 16846.86,19585.81 16706.96,19585.81 "/>
  <path id="26" class="fil1 str0" d="M18278.57 19174.33l0 -929.64c0,-274.32 125.91,-411.48 377.74,-411.48l636.57 0 137.58 116.84 0 162.56 -764.82 0c-68.4,0 -102.6,37.25 -102.6,111.76l0 970.28c0,74.51 34.2,111.76 102.6,111.76l764.82 0 0 162.56 -137.58 116.84 -636.57 0c-251.83,0 -377.74,-137.16 -377.74,-411.48z"/>
  <path id="27" class="fil1 str0" d="M19703.27 19184.49l0 -530.86c0,-267.55 122.81,-401.32 368.42,-401.32l326.45 0c244.05,0 366.08,133.77 366.08,401.32l0 530.86c0,267.55 -122.03,401.32 -366.08,401.32l-326.45 0c-245.61,0 -368.42,-133.77 -368.42,-401.32zm272.82 25.4c0,77.89 35.76,116.84 107.26,116.84l300.8 0c73.06,0 109.59,-38.95 109.59,-116.84l0 -581.66c0,-79.59 -36.53,-119.38 -109.59,-119.38l-300.8 0c-71.5,0 -107.26,39.79 -107.26,119.38l0 581.66z"/>
  <path id="28" class="fil1 str0" d="M21095.34 19585.81l0 -1333.5 1394.39 0c244.05,0 366.09,133.77 366.09,401.32l0 932.18 -270.49 0 0 -957.58c0,-79.59 -36.53,-119.38 -109.59,-119.38l-363.76 0 0 1076.96 -272.81 0 0 -1076.96 -471.02 0 0 1076.96 -272.81 0z"/>
  <path id="29" class="fil1 str0" d="M23196.25 20093.81l0 -1841.5 671.55 0c244.06,0 366.09,133.77 366.09,401.32l0 530.86c0,267.55 -122.03,401.32 -366.09,401.32l-398.73 0 0 508 -272.82 0zm272.82 -767.08l384.74 0c73.07,0 109.59,-38.95 109.59,-116.84l0 -581.66c0,-79.59 -36.52,-119.38 -109.59,-119.38l-384.74 0 0 817.88z"/>
  <path id="30" class="fil1 str0" d="M24555.67 19184.49l0 -932.18 272.82 0 0 957.58c0,77.89 35.75,116.84 107.26,116.84l387.07 0 0 -1074.42 270.48 0 0 1333.5 -669.21 0c-245.62,0 -368.42,-133.77 -368.42,-401.32z"/>
  <path id="31" class="fil1 str0" d="M25933.74 19184.49l0 -1351.28 272.82 0 0 419.1 415.05 0 0 256.54 -415.05 0 0 701.04c0,77.89 35.76,116.84 107.26,116.84l331.11 0 0 160.02 -121.25 99.06 -221.52 0c-245.61,0 -368.42,-133.77 -368.42,-401.32z"/>
  <path id="32" class="fil1 str0" d="M26885.1 19184.49l0 -530.86c0,-267.55 122.8,-401.32 368.42,-401.32l303.13 0c244.05,0 366.09,133.77 366.09,401.32l0 381 -764.82 0 0 175.26c0,77.89 35.75,116.84 107.26,116.84l610.92 0 0 160.02 -123.58 99.06 -499 0c-245.62,0 -368.42,-133.77 -368.42,-401.32zm272.82 -388.62l494.33 0 0 -167.64c0,-79.59 -36.53,-119.38 -109.59,-119.38l-277.48 0c-71.51,0 -107.26,39.79 -107.26,119.38l0 167.64z"/>
  <path id="33" class="fil1 str0" d="M28244.52 19585.81l0 -1168.4c55.96,-110.07 163.22,-165.1 321.78,-165.1l244.84 0 121.25 99.06 0 157.48 -319.45 0c-45.09,0 -76.95,12.7 -95.6,38.1l0 1038.86 -272.82 0z"/>
  <path id="34" class="fil1 str0" d="M29680.88 19468.97l0 -162.56 720.52 0c68.4,0 102.6,-37.25 102.6,-111.76l0 -193.04c0,-66.04 -26.43,-104.99 -79.28,-116.84l-473.35 -101.6c-180.33,-40.64 -270.49,-173.57 -270.49,-398.78l0 -139.7c0,-274.32 125.92,-411.48 377.75,-411.48l545.63 0 137.58 116.84 0 162.56 -673.88 0c-68.4,0 -102.6,37.25 -102.6,111.76l0 167.64c0,66.04 26.43,104.99 79.28,116.84l473.35 101.6c180.32,40.64 270.48,172.72 270.48,396.24l0 167.64c0,274.32 -125.91,411.48 -377.74,411.48l-592.27 0 -137.58 -116.84z"/>
  <path id="35" class="fil1 str0" d="M31072.95 19184.49l0 -530.86c0,-267.55 122.8,-401.32 368.42,-401.32l326.44 0c244.06,0 366.09,133.77 366.09,401.32l0 530.86c0,267.55 -122.03,401.32 -366.09,401.32l-326.44 0c-245.62,0 -368.42,-133.77 -368.42,-401.32zm272.81 25.4c0,77.89 35.76,116.84 107.26,116.84l300.8 0c73.07,0 109.59,-38.95 109.59,-116.84l0 -581.66c0,-79.59 -36.52,-119.38 -109.59,-119.38l-300.8 0c-71.5,0 -107.26,39.79 -107.26,119.38l0 581.66z"/>
  <path id="36" class="fil1 str0" d="M32446.35 19184.49l0 -530.86c0,-267.55 122.81,-401.32 368.42,-401.32l440.71 0 123.58 99.06 0 157.48 -552.63 0c-71.5,0 -107.26,39.79 -107.26,119.38l0 581.66c0,77.89 35.76,116.84 107.26,116.84l552.63 0 0 160.02 -123.58 99.06 -440.71 0c-245.61,0 -368.42,-133.77 -368.42,-401.32z"/>
  <path id="37" class="fil1 str0" d="M33656.54 18026.25l0 -299.72 282.14 0 0 299.72 -282.14 0zm4.66 1559.56l0 -1333.5 272.82 0 0 1333.5 -272.82 0z"/>
  <path id="38" class="fil1 str0" d="M34262.8 19184.49l0 -530.86c0,-267.55 122.8,-401.32 368.42,-401.32l303.13 0c244.05,0 366.08,133.77 366.08,401.32l0 381 -764.82 0 0 175.26c0,77.89 35.76,116.84 107.27,116.84l610.92 0 0 160.02 -123.59 99.06 -498.99 0c-245.62,0 -368.42,-133.77 -368.42,-401.32zm272.81 -388.62l494.34 0 0 -167.64c0,-79.59 -36.53,-119.38 -109.6,-119.38l-277.47 0c-71.51,0 -107.27,39.79 -107.27,119.38l0 167.64z"/>
  <path id="39" class="fil1 str0" d="M35622.22 19184.49l0 -1351.28 272.81 0 0 419.1 415.06 0 0 256.54 -415.06 0 0 701.04c0,77.89 35.76,116.84 107.26,116.84l331.11 0 0 160.02 -121.25 99.06 -221.52 0c-245.61,0 -368.41,-133.77 -368.41,-401.32z"/>
  <polygon id="40" class="fil1 str0" points="36461.65,18298.03 36489.63,18252.31 36722.81,18252.31 37032.93,19326.73 37065.58,19326.73 37375.7,18252.31 37611.21,18252.31 37639.19,18298.03 37102.88,20093.81 36869.71,20093.81 36841.73,20048.09 36986.3,19585.81 36846.39,19585.81 "/>
  <path id="41" class="fil1 str0" d="M38418 19174.33l0 -929.64c0,-274.32 125.91,-411.48 377.74,-411.48l538.64 0c251.83,0 377.75,137.16 377.75,411.48l0 929.64c0,274.32 -125.92,411.48 -377.75,411.48l-538.64 0c-251.83,0 -377.74,-137.16 -377.74,-411.48zm284.47 20.32c0,74.51 34.2,111.76 102.6,111.76l519.98 0c68.41,0 102.6,-37.25 102.6,-111.76l0 -970.28c0,-74.51 -34.19,-111.76 -102.6,-111.76l-519.98 0c-68.4,0 -102.6,37.25 -102.6,111.76l0 970.28z"/>
  <path id="42" class="fil1 str0" d="M40061.89 19585.81l0 -1478.28c0,-267.55 122.8,-401.32 368.42,-401.32l221.52 0 121.25 99.06 0 160.02 -331.11 0c-71.51,0 -107.26,38.95 -107.26,116.84l0 170.18 415.05 0 0 256.54 -415.05 0 0 1076.96 -272.82 0z"/>
  <polygon id="43" class="fil1 str0" points="41577.54,19585.81 41577.54,17833.21 41862.01,17833.21 41862.01,19585.81 "/>
  <path id="44" class="fil1 str0" d="M42235.09 19585.81l0 -1333.5 671.55 0c244.06,0 366.09,133.77 366.09,401.32l0 932.18 -270.49 0 0 -957.58c0,-79.59 -36.52,-119.38 -109.59,-119.38l-384.74 0 0 1076.96 -272.82 0z"/>
  <path id="45" class="fil1 str0" d="M43594.51 19184.49l0 -530.86c0,-267.55 122.8,-401.32 368.42,-401.32l398.73 0 0 -546.1 270.49 0 0 1879.6 -669.22 0c-245.62,0 -368.42,-133.77 -368.42,-401.32zm272.82 25.4c0,77.89 35.75,116.84 107.26,116.84l387.07 0 0 -817.88 -387.07 0c-71.51,0 -107.26,39.79 -107.26,119.38l0 581.66z"/>
  <path id="46" class="fil1 str0" d="M44977.25 18026.25l0 -299.72 282.14 0 0 299.72 -282.14 0zm4.66 1559.56l0 -1333.5 272.82 0 0 1333.5 -272.82 0z"/>
  <path id="47" class="fil1 str0" d="M45905.29 19585.81c-245.62,0 -368.42,-132.08 -368.42,-396.24 0,-264.16 122.8,-396.24 368.42,-396.24l361.42 0 0 -165.1c0,-79.59 -36.53,-119.38 -109.59,-119.38l-494.34 0 0 -157.48 121.26 -99.06 387.07 0c244.05,0 366.09,133.77 366.09,401.32l0 932.18 -631.91 0zm-95.6 -375.92c0,77.89 35.75,116.84 107.26,116.84l349.76 0 0 -294.64 -349.76 0c-71.51,0 -107.26,38.95 -107.26,116.84l0 60.96z"/>
  <line class="fil5 str2" x1="24082.42" y1="4814.94" x2="3769.16" y2= "4814.94" />
  <line class="fil5 str3" x1="59535.63" y1="12437.93" x2="38066.75" y2= "12437.93" />
  <line class="fil5 str4" x1="59542.29" y1="4771.68" x2="38068" y2= "4771.68" />
  <line class="fil5 str4" x1="24083.27" y1="12445.34" x2="3768.19" y2= "12445.34" />
  <ellipse class="fil5 str2" transform="matrix(0.998461 0.0554601 -0.0554601 0.998461 3045.78 4809.83)" rx="719.66" ry="740.83"/>
  <ellipse class="fil5 str2" transform="matrix(0.998461 0.0554601 -0.0554601 0.998461 60295.9 12438.5)" rx="719.66" ry="740.83"/>
  <ellipse class="fil5 str5" transform="matrix(0.998461 0.0554601 -0.0554601 0.998461 60264.1 4776.83)" rx="719.66" ry="740.83"/>
  <ellipse class="fil5 str5" transform="matrix(0.998159 -0.060648 0.060648 0.998159 3044.08 12432.4)" rx="719.66" ry="740.83"/>
  <polygon class="fil6" points="3769.8,11336.28 3769.8,6041.3 4706.01,6041.3 4706.01,8166.97 6939.11,8166.97 6939.11,6041.3 7875.33,6041.3 7875.33,11336.28 6939.11,11336.28 6939.11,9011.09 4706.01,9011.09 4706.01,11336.28 "/>
  <path id="1" class="fil6" d="M8673.41 11152.11l1634.54 -5110.81 1450.36 0 1634.54 5110.81 -122.78 184.17 -775.06 0 -368.35 -1174.1 -2194.73 0 -360.67 1174.1 -775.06 0 -122.79 -184.17zm1519.43 -1834.06l1680.58 0 -767.39 -2432.62 -145.8 0 -767.39 2432.62z"/>
  <path id="2" class="fil6" d="M14114.19 10093.11l0 -2808.64c0,-828.78 414.39,-1243.17 1243.17,-1243.17l2094.97 0 452.76 353 0 491.13 -2517.03 0c-225.11,0 -337.66,112.55 -337.66,337.65l0 2931.42c0,225.1 112.55,337.65 337.66,337.65l2517.03 0 0 491.13 -452.76 353 -2094.97 0c-828.78,0 -1243.17,-414.39 -1243.17,-1243.17z"/>
  <polygon id="3" class="fil6" points="18941.06,11336.28 18941.06,6041.3 19877.27,6041.3 19877.27,8366.49 21956.89,6041.3 22824.04,6041.3 22916.13,6233.15 21135.79,8220.68 23107.98,11144.43 23015.89,11336.28 22156.42,11336.28 20529.55,8895.99 19877.27,9609.66 19877.27,11336.28 "/>
  <polygon class="fil0" points="39268.17,6879.27 39268.17,6035.16 43542.45,6035.16 43542.45,6879.27 41869.57,6879.27 41869.57,11330.05 40933.38,11330.05 40933.38,6879.27 "/>
  <polygon id="1" class="fil0" points="44378.89,11330.05 44378.89,6035.16 45315.09,6035.16 45315.09,8160.79 47548.15,8160.79 47548.15,6035.16 48484.35,6035.16 48484.35,11330.05 47548.15,11330.05 47548.15,9004.9 45315.09,9004.9 45315.09,11330.05 "/>
  <path id="2" class="fil0" d="M49712.15 10086.9l0 -2808.6c0,-828.76 414.39,-1243.14 1243.15,-1243.14l1772.64 0c828.77,0 1243.15,414.38 1243.15,1243.14l0 2808.6c0,828.77 -414.38,1243.15 -1243.15,1243.15l-1772.64 0c-828.76,0 -1243.15,-414.38 -1243.15,-1243.15zm936.2 61.39c0,225.1 112.55,337.65 337.65,337.65l1711.24 0c225.1,0 337.65,-112.55 337.65,-337.65l0 -2931.38c0,-225.09 -112.55,-337.64 -337.65,-337.64l-1711.24 0c-225.1,0 -337.65,112.55 -337.65,337.64l0 2931.38z"/>
  <polygon id="3" class="fil0" points="55198.89,11330.05 55198.89,6035.16 56219.5,6035.16 58575.34,9818.32 58575.34,6035.16 59503.87,6035.16 59503.87,11330.05 58490.93,11330.05 56135.09,7546.89 56135.09,11330.05 "/>
 </g>
</svg>
