<?xml version="1.0" encoding="UTF-8"?>
<!DOCTYPE svg PUBLIC "-//W3C//DTD SVG 1.1//EN" "http://www.w3.org/Graphics/SVG/1.1/DTD/svg11.dtd">
<!-- Creator: CorelDRAW 2019 (64-Bit Evaluation Version) -->
<svg xmlns="http://www.w3.org/2000/svg" xml:space="preserve" width="630mm" height="197.5mm" version="1.1" style="shape-rendering:geometricPrecision; text-rendering:geometricPrecision; image-rendering:optimizeQuality; fill-rule:evenodd; clip-rule:evenodd"
viewBox="0 0 63000 19750"
 xmlns:xlink="http://www.w3.org/1999/xlink"
 xmlns:xodm="http://www.corel.com/coreldraw/odm/2003">
 <defs>
  <style type="text/css">
   <![CDATA[
    .str3 {stroke:#00AFEF;stroke-width:400;stroke-miterlimit:22.9256}
    .str4 {stroke:#00AFEF;stroke-width:400.01;stroke-miterlimit:22.9256}
    .str1 {stroke:#6D3CC1;stroke-width:400.01;stroke-miterlimit:22.9256}
    .str2 {stroke:#6D3CC1;stroke-width:500;stroke-miterlimit:22.9256}
    .str0 {stroke:#0098DA;stroke-width:17.64;stroke-miterlimit:2.61313}
    .fil3 {fill:none}
    .fil2 {fill:#FEFEFE}
    .fil4 {fill:#00AFEF;fill-rule:nonzero}
    .fil0 {fill:#00AFEF;fill-rule:nonzero}
    .fil1 {fill:#6D3CC1;fill-rule:nonzero}
   ]]>
  </style>
 </defs>
 <g id="Layer_x0020_1">
  <metadata id="CorelCorpID_0Corel-Layer"/>
  <g id="_2618942354144">
   <g>
    <path class="fil0" d="M26790.46 15024.2l-2594.17 -1497.75 -94.4 -54.51 -0.01 -108.5 0 -7812.46 0.01 -108.5 94.4 -54.51 6765.78 -3906.23 94.42 -54.51 94.41 54.51 975.33 563.13 92.92 53.65 0.75 108.62 77.13 11198.21 2799.87 -1615.49 0.1 -4050.11c-30,-7.9 -59.42,-17.62 -88.1,-29.04 -89.44,-35.61 -170.12,-87.55 -238.19,-152l0.35 -0.37c-74.09,-70.23 -133.52,-154.15 -173.49,-246.99 -39.16,-90.95 -60.86,-190.89 -60.86,-295.54 0,-206.64 83.78,-393.74 219.22,-529.17 135.42,-135.43 322.53,-219.21 529.18,-219.21 206.64,0 393.74,83.78 529.17,219.21 135.42,135.44 219.2,322.53 219.2,529.17 0,206.65 -83.78,393.76 -219.2,529.18 -92.86,92.87 -210.02,161.44 -341.11,195.38l-0.09 4158.03 -0.01 108.53 -94.41 54.48 -3173.82 1831.25 -279.54 161.28 -2.22 -323.55 -78.61 -11413.15 -787.98 -454.96 -6576.95 3797.2 0 7595.46 2499.79 1443.26c47.15,-47.67 100.78,-89.15 159.52,-123.05 110.63,-63.85 238.06,-100.4 372.96,-100.4 102.26,0 200.79,21.28 291.38,59.71l0.74 0c92.97,39.45 176.48,97.41 245.96,169.3 66.02,68.31 119.26,149.55 155.72,239.75 35.2,87.06 54.59,181.49 54.59,279.61 0,206.64 -83.78,393.74 -219.21,529.19 -135.43,135.43 -322.54,219.21 -529.18,219.21 -206.65,0 -393.76,-83.78 -529.19,-219.2 -135.42,-135.45 -219.2,-322.55 -219.2,-529.2 0,-66.3 8.91,-131.27 25.62,-193.69l1.42 -5.23zm8756.8 -8270.54c-67.08,-67.08 -159.77,-108.57 -262.15,-108.57 -102.39,0 -195.09,41.49 -262.16,108.57 -67.08,67.07 -108.58,159.77 -108.58,262.15 0,52.37 10.65,101.9 29.87,146.55 20.62,47.9 49.85,89.82 85.38,123.44l0.74 0c34.06,32.25 73.78,57.98 117.21,75.27 41.27,16.43 87.63,25.48 137.52,25.48l0.02 0c102.38,0 195.07,-41.5 262.15,-108.58 67.07,-67.07 108.57,-159.77 108.57,-262.16 0,-102.38 -41.5,-195.07 -108.57,-262.15zm-7890.74 8127.21c-43.43,-18.32 -92.27,-28.46 -144.71,-28.46 -68.54,0 -131.88,17.76 -185.62,48.76 -56.03,32.34 -103.06,79.56 -136.05,136.56 -15.72,27.18 -28.17,57.06 -36.72,89.06 -8.05,30.06 -12.35,62.35 -12.35,96.33 0,102.4 41.5,195.1 108.57,262.18 67.08,67.07 159.78,108.57 262.17,108.57 102.39,0 195.09,-41.51 262.16,-108.58 67.07,-67.08 108.57,-159.78 108.57,-262.17 0,-50.05 -9.44,-97.1 -26.57,-139.47 -17.88,-44.24 -44.39,-84.5 -77.52,-118.78 -34.19,-35.37 -75.63,-64.04 -122.05,-83.74l0.12 -0.26z"/>
    <path class="fil1" d="M35378.31 3835.43l2576.14 1487.35 132.18 76.32 0 151.9 0 7812.44 0 151.9 -132.18 76.32 -6765.77 3906.23 -131.66 76.01 -131.66 -76.01 -1000.97 -577.89 -133.21 -76.92 0 -151.3 0 -11049.84 -2684.88 1550.11 0 3931.5c20.12,7.2 39.86,15.16 59.16,23.84l-0.18 0.38c101.05,45.57 190.92,110.33 264.76,189.4 69.82,74.76 125.97,162.88 164.37,260.29 37.01,93.95 57.36,195.57 57.36,301.14 0,227.49 -92.23,433.47 -241.34,582.58 -149.1,149.11 -355.08,241.33 -582.58,241.33 -227.48,0 -433.44,-92.23 -582.55,-241.34 -149.1,-149.11 -241.32,-355.09 -241.32,-582.57 0,-227.48 92.22,-433.46 241.33,-582.58 91.9,-91.91 205.42,-162.2 332.27,-202.6l0 -4073.27 0 -151.9 132.18 -76.32 3213.6 -1855.37 396.54 -228.94 0 457.15 0 11355.7 736.08 424.97 6501.93 -3753.9 0 -7508.64 -2444.08 -1411.1c-40.81,35.74 -85.26,67.64 -132.75,95.04 -122.02,70.42 -262.29,110.73 -410.46,110.73 -104.69,0 -205.79,-20.12 -299.55,-56.76 -96.37,-37.64 -183.83,-92.87 -258.43,-161.67 -82.86,-76.51 -150.18,-170.3 -196.43,-275.89 -44.69,-102 -69.51,-213.55 -69.51,-329.61 0,-227.47 92.24,-433.46 241.35,-582.56 149.11,-149.11 355.08,-241.34 582.57,-241.34 227.5,0 433.47,92.22 582.57,241.33 149.11,149.11 241.33,355.1 241.33,582.57 0,54.84 -5.58,108.97 -16.21,161.79zm-598.94 -370.54c-53.39,-53.39 -127.2,-86.43 -208.75,-86.43 -81.54,0 -155.35,33.04 -208.75,86.44 -53.41,53.4 -86.45,127.22 -86.45,208.74 0,43.46 8.6,83.64 24.07,118.95 16.25,37.12 40.41,70.54 70.44,98.27 27.02,24.92 58.57,44.88 93.21,58.41 32.35,12.63 68.56,19.58 107.48,19.58 55.27,0 105.81,-13.99 148.17,-38.44 44.36,-25.61 81.81,-63.34 108.29,-109.12 12.32,-21.29 22.17,-45.04 29.04,-70.75 6.31,-23.6 9.68,-49.36 9.68,-76.9 0,-81.54 -33.04,-155.36 -86.43,-208.75zm-7948.59 8137.5l-2.93 -0.01 0 1.02c-81.52,0 -155.32,33.04 -208.72,86.44 -53.4,53.4 -86.43,127.21 -86.43,208.76 0,81.54 33.03,155.36 86.42,208.75 53.4,53.4 127.21,86.44 208.73,86.44 81.55,0 155.37,-33.04 208.76,-86.43 53.4,-53.4 86.43,-127.22 86.43,-208.76 0,-39.25 -7.16,-76.01 -20.18,-109.06 -13.57,-34.43 -33.74,-65.94 -59.03,-93.01 -26.91,-28.82 -58.91,-52.07 -94.2,-67.93l-1.03 0c-35.28,-15.87 -73.47,-25.1 -112.85,-26.07l0 -0.03 -4.97 -0.09 0 -0.02z"/>
   </g>
   <g>
    <polygon class="fil2 str0" points="27894.4,8322.9 28873.29,7757.75 28873.29,8455.76 27894.4,9020.92 "/>
    <polygon class="fil2 str0" points="27894.4,9380.5 28873.29,8815.35 28873.29,9513.37 27894.4,10078.53 "/>
    <polygon class="fil2 str0" points="27894.4,10483.27 28873.29,9918.12 28873.29,10616.13 27894.4,11181.29 "/>
   </g>
   <g>
    <polygon class="fil2 str0" points="33331.25,8834.92 34310.13,8269.76 34310.13,8967.78 33331.25,9532.94 "/>
    <polygon class="fil2 str0" points="33331.25,9892.52 34310.13,9327.37 34310.13,10025.38 33331.25,10590.54 "/>
    <polygon class="fil2 str0" points="33331.25,10995.29 34310.13,10430.14 34310.13,11128.15 33331.25,11693.31 "/>
   </g>
  </g>
  <line class="fil3 str1" x1="24101.03" y1="5642.38" x2="3787.77" y2= "5642.38" />
  <line class="fil3 str2" x1="59554.24" y1="13265.37" x2="38085.36" y2= "13265.37" />
  <line class="fil3 str3" x1="59560.9" y1="5599.12" x2="38086.61" y2= "5599.12" />
  <line class="fil3 str3" x1="24101.88" y1="13272.78" x2="3786.8" y2= "13272.78" />
  <ellipse class="fil3 str1" transform="matrix(0.998461 0.0554601 -0.0554601 0.998461 3064.39 5637.27)" rx="719.66" ry="740.83"/>
  <ellipse class="fil3 str1" transform="matrix(0.998461 0.0554601 -0.0554601 0.998461 60314.6 13266)" rx="719.66" ry="740.83"/>
  <ellipse class="fil3 str4" transform="matrix(0.998461 0.0554601 -0.0554601 0.998461 60282.7 5604.27)" rx="719.66" ry="740.83"/>
  <ellipse class="fil3 str4" transform="matrix(0.998159 -0.060648 0.060648 0.998159 3062.69 13259.8)" rx="719.66" ry="740.83"/>
  <polygon class="fil4" points="3788.41,12163.72 3788.41,6868.74 4724.62,6868.74 4724.62,8994.41 6957.72,8994.41 6957.72,6868.74 7893.94,6868.74 7893.94,12163.72 6957.72,12163.72 6957.72,9838.53 4724.62,9838.53 4724.62,12163.72 "/>
  <path id="1" class="fil4" d="M8692.02 11979.55l1634.54 -5110.81 1450.36 0 1634.54 5110.81 -122.78 184.17 -775.06 0 -368.35 -1174.1 -2194.73 0 -360.67 1174.1 -775.06 0 -122.79 -184.17zm1519.43 -1834.06l1680.58 0 -767.39 -2432.62 -145.8 0 -767.39 2432.62z"/>
  <path id="2" class="fil4" d="M14132.8 10920.55l0 -2808.64c0,-828.78 414.39,-1243.17 1243.17,-1243.17l2094.97 0 452.76 353 0 491.13 -2517.03 0c-225.11,0 -337.66,112.55 -337.66,337.65l0 2931.42c0,225.1 112.55,337.65 337.66,337.65l2517.03 0 0 491.13 -452.76 353 -2094.97 0c-828.78,0 -1243.17,-414.39 -1243.17,-1243.17z"/>
  <polygon id="3" class="fil4" points="18959.67,12163.72 18959.67,6868.74 19895.88,6868.74 19895.88,9193.93 21975.5,6868.74 22842.65,6868.74 22934.74,7060.59 21154.4,9048.12 23126.59,11971.87 23034.5,12163.72 22175.03,12163.72 20548.16,9723.43 19895.88,10437.1 19895.88,12163.72 "/>
  <polygon class="fil1" points="39286.78,7706.71 39286.78,6862.6 43561.06,6862.6 43561.06,7706.71 41888.18,7706.71 41888.18,12157.49 40951.99,12157.49 40951.99,7706.71 "/>
  <polygon id="1" class="fil1" points="44397.5,12157.49 44397.5,6862.6 45333.7,6862.6 45333.7,8988.23 47566.76,8988.23 47566.76,6862.6 48502.96,6862.6 48502.96,12157.49 47566.76,12157.49 47566.76,9832.34 45333.7,9832.34 45333.7,12157.49 "/>
  <path id="2" class="fil1" d="M49730.76 10914.34l0 -2808.6c0,-828.76 414.39,-1243.14 1243.15,-1243.14l1772.64 0c828.77,0 1243.15,414.38 1243.15,1243.14l0 2808.6c0,828.77 -414.38,1243.15 -1243.15,1243.15l-1772.64 0c-828.76,0 -1243.15,-414.38 -1243.15,-1243.15zm936.2 61.39c0,225.1 112.55,337.65 337.65,337.65l1711.24 0c225.1,0 337.65,-112.55 337.65,-337.65l0 -2931.38c0,-225.09 -112.55,-337.64 -337.65,-337.64l-1711.24 0c-225.1,0 -337.65,112.55 -337.65,337.64l0 2931.38z"/>
  <polygon id="3" class="fil1" points="55217.5,12157.49 55217.5,6862.6 56238.11,6862.6 58593.95,10645.76 58593.95,6862.6 59522.48,6862.6 59522.48,12157.49 58509.54,12157.49 56153.7,8374.33 56153.7,12157.49 "/>
 </g>
</svg>
